<?xml version="1.0" encoding="utf-8"?>
<!-- Generator: Adobe Illustrator 12.0.0, SVG Export Plug-In . SVG Version: 6.00 Build 51448)  -->
<!DOCTYPE svg PUBLIC "-//W3C//DTD SVG 1.1//EN" "http://www.w3.org/Graphics/SVG/1.1/DTD/svg11.dtd" [
	<!ENTITY ns_svg "http://www.w3.org/2000/svg">
	<!ENTITY ns_xlink "http://www.w3.org/1999/xlink">
]>
<svg  version="1.1" id="レイヤー_1" xmlns="&ns_svg;" xmlns:xlink="&ns_xlink;" width="539.489" height="114.245"
	 viewBox="0 0 539.489 114.245" overflow="visible" enable-background="new 0 0 539.489 114.245" xml:space="preserve">
<g>
	<path fill="#FFFFFF" d="M126.539,86.004c-1.906,2.574-4.504,4.957-7.793,7.148c-3.289,2.193-6.936,3.861-10.939,5.006
		c-2.957,0.859-5.793,1.145-8.51,0.859s-5.143-1.072-7.279-2.359s-3.869-3.051-5.197-5.291s-2.041-4.887-2.135-7.938
		c-0.191-2.479-0.098-5.172,0.285-8.08c0.381-2.906,0.715-5.6,1.002-8.08c0.668-5.623,1.359-10.746,2.074-15.371
		c0.715-4.623,0.643-9.08-0.215-13.371c-0.572-2.287-1.574-3.859-3.006-4.719c-1.432-0.857-3.055-1.287-4.869-1.287
		c-1.816,0-3.631,0.357-5.445,1.072s-3.391,1.502-4.727,2.359c-2.58,1.717-5.184,3.576-7.811,5.578s-5.135,4.004-7.521,6.006
		c-2.389,2.002-4.586,3.908-6.592,5.719c-2.006,1.813-3.629,3.432-4.871,4.861c-0.287,0.287-0.43,0.621-0.43,1.002v50.479
		c0,1.43-0.428,2.502-1.283,3.219c-0.855,0.713-1.783,1.072-2.779,1.072c-0.998,0-1.924-0.359-2.779-1.072
		c-0.855-0.717-1.283-1.789-1.283-3.219V66.127c0-0.191-0.121-0.334-0.361-0.43c-0.24-0.094-0.455-0.047-0.646,0.143
		c-4.783,4.48-9.344,8.867-13.682,13.156c-4.338,4.291-8.889,8.867-13.654,13.729c-0.764,0.762-1.621,1.168-2.574,1.215
		c-0.953,0.049-1.764-0.262-2.432-0.93c-1.145-1.238-1.385-2.525-0.717-3.861c0.668-1.334,1.336-2.525,2.004-3.574
		c7.625-12.203,13.822-24.072,18.59-35.607c1.047-2.383,1.811-4.742,2.287-7.078s0.621-4.553,0.43-6.65
		c-0.191-2-0.977-3.502-2.359-4.504c-1.383-1-3.053-1.668-5.006-2.002c-1.953-0.332-3.979-0.475-6.076-0.428s-3.957,0.07-5.578,0.07
		c-1.145,0-2.049-0.332-2.717-1s-1.072-1.453-1.215-2.359c-0.145-0.906,0.047-1.74,0.572-2.504c0.523-0.762,1.357-1.238,2.502-1.43
		c2.859-0.285,5.576-0.381,8.15-0.285s5.004,0.477,7.293,1.143c3.051,0.953,5.506,2.574,7.365,4.863s2.883,4.91,3.074,7.865
		c0.191,2.859-0.072,5.695-0.787,8.508s-1.645,5.459-2.787,7.936c-1.717,3.91-3.576,7.723-5.578,11.441s-4.004,7.389-6.006,11.01
		c-0.191,0.383-0.096,0.691,0.287,0.93c0.381,0.238,0.715,0.215,1-0.07c2.859-2.955,5.695-5.744,8.508-8.365s5.99-5.506,9.537-8.652
		c0.383-0.191,0.576-0.525,0.576-1.002V4.35c0-1.43,0.428-2.502,1.283-3.217s1.781-1.072,2.779-1.072
		c0.996,0,1.924,0.357,2.779,1.072S42.56,2.92,42.56,4.35v46.047c0,0.191,0.07,0.334,0.215,0.43s0.313,0.047,0.504-0.145
		c1.813-1.523,3.576-3.025,5.295-4.504c1.717-1.477,3.506-3.002,5.365-4.576c1.859-1.572,3.863-3.217,6.01-4.934
		c2.146-1.715,4.604-3.527,7.371-5.434c2.098-1.334,4.219-2.406,6.365-3.217s4.604-1.311,7.371-1.502
		c3.625-0.191,6.678,0.596,9.158,2.359s4.293,4.17,5.438,7.221c0.857,2.574,1.381,5.197,1.572,7.865
		c0.191,2.67,0.215,5.363,0.072,8.08c-0.145,2.717-0.406,5.41-0.787,8.08c-0.383,2.67-0.715,5.291-1,7.863
		c-0.287,2.385-0.621,4.936-1.002,7.652c-0.383,2.717-0.572,5.172-0.572,7.363c0.191,3.719,1.43,6.293,3.719,7.723
		c2.287,1.43,5.1,1.717,8.438,0.857c3.621-0.857,6.959-2.121,10.01-3.789s5.338-3.457,6.863-5.363
		c0.668-0.57,1.311-0.809,1.93-0.715c0.619,0.096,1.143,0.357,1.572,0.787s0.691,0.953,0.787,1.572
		C127.349,84.694,127.111,85.336,126.539,86.004z"/>
	<path fill="#FFFFFF" d="M155.298,61.206c-1.145,0-1.98-0.379-2.504-1.139s-0.785-1.568-0.785-2.424s0.262-1.662,0.785-2.422
		s1.359-1.141,2.504-1.141h81.225c2.572,0,4.74-0.309,6.504-0.928s3.193-1.311,4.291-2.074c1.096-0.762,1.883-1.477,2.359-2.145
		s0.715-1.049,0.715-1.145c0.572-0.953,1.287-1.549,2.146-1.787c0.857-0.238,1.691-0.213,2.502,0.072
		c0.809,0.285,1.428,0.811,1.857,1.572s0.453,1.668,0.072,2.717c-0.096,0.096-0.477,0.715-1.145,1.859s-1.787,2.381-3.359,3.711
		c-1.574,1.33-3.672,2.541-6.293,3.633c-2.621,1.094-5.838,1.639-9.65,1.639H155.298z"/>
	<path fill="#FFFFFF" d="M406.317,57.969c0.094,0.764-0.145,1.432-0.715,2.004c-0.572,0.572-1.24,0.857-2.002,0.857h-22.166
		c-0.5,0-0.75,0.191-0.75,0.57c-1.043,10.203-3.371,19.617-6.982,28.244c-3.611,8.629-8.992,16.518-16.141,23.666
		c-0.572,0.666-1.191,0.975-1.859,0.93c-0.668-0.049-1.238-0.287-1.715-0.715c-0.477-0.432-0.764-1.002-0.859-1.717
		s0.096-1.406,0.572-2.074l0.145-0.143c3.24-3.24,5.98-6.814,8.221-10.725c2.24-3.908,4.1-7.959,5.578-12.154
		c1.477-4.195,2.598-8.461,3.359-12.799s1.24-8.51,1.432-12.514c0-0.379-0.209-0.57-0.625-0.57h-35.302
		c-0.477,0-0.713,0.191-0.713,0.57c-1.336,3.051-2.742,6.102-4.219,9.152s-3.121,5.982-4.932,8.795
		c-1.813,2.813-3.838,5.459-6.078,7.938c-2.242,2.479-4.791,4.623-7.65,6.434c-1.527,0.953-3.242,1.789-5.148,2.504
		s-4.053,0.977-6.436,0.785c-2.479-0.285-4.672-1.189-6.578-2.715s-3.242-3.385-4.004-5.578c-0.762-2.289-1-4.457-0.715-6.508
		c0.285-2.049,0.762-3.979,1.43-5.791c0.953-2.668,2.313-5.1,4.076-7.293c1.764-2.191,3.766-4.098,6.006-5.719
		s4.646-3.006,7.221-4.156c2.574-1.148,5.195-2.059,7.867-2.73c3.24-0.766,6.957-1.246,11.152-1.438c0.285,0,0.523-0.189,0.715-0.57
		c1.43-5.141,2.527-10.162,3.289-15.064s1.145-9.971,1.145-15.207c0-1.236-0.406-2.26-1.217-3.068s-1.834-1.215-3.072-1.215h-25.025
		c-0.953,0-1.668-0.311-2.145-0.932s-0.691-1.289-0.645-2.006c0.047-0.715,0.311-1.385,0.787-2.006s1.191-0.932,2.145-0.932h26.313
		c3.902,0,6.875,1.143,8.918,3.428s3.066,5.426,3.066,9.424c0,4.379-0.383,8.877-1.145,13.494
		c-0.764,4.617-1.813,9.354-3.146,14.209c-0.191,0.381-0.047,0.57,0.43,0.57l33.736-0.143c0.398,0,0.648-0.189,0.75-0.572
		c0-2.951,0.023-5.689,0.07-8.213s0.023-5.119-0.07-7.787v-4.857c0-1.428-0.021-2.951-0.063-4.57
		c-0.043-1.619-0.063-3.191-0.063-4.715c-0.096-1.332,0.357-2.523,1.359-3.57s2.172-1.572,3.508-1.572
		c1.24,0,2.361,0.406,3.363,1.217s1.693,1.74,2.076,2.789c1.43,3.91,3.24,7.652,5.434,11.229c2.191,3.576,4.408,6.771,6.648,9.584
		s4.266,5.221,6.078,7.223c1.811,2.004,3.098,3.387,3.861,4.148C405.841,56.063,406.317,56.922,406.317,57.969z M326.183,61.401
		c0.189-0.379,0.047-0.57-0.43-0.57c-1.336,0.191-2.623,0.381-3.861,0.572s-2.525,0.477-3.859,0.857
		c-4.578,1.24-8.701,3.219-12.371,5.936s-6.268,6.221-7.793,10.51c-0.764,2.289-0.979,4.266-0.645,5.934s1.025,2.908,2.074,3.719
		s2.359,1.121,3.934,0.93c1.572-0.191,3.313-0.953,5.219-2.289c4.48-3.336,8.078-7.291,10.797-11.867
		C321.964,70.555,324.277,65.979,326.183,61.401z M396.825,55.331c0.285,0,0.521-0.166,0.713-0.5
		c0.191-0.332,0.096-0.689-0.285-1.072c-2.193-2.383-4.48-5.027-6.863-7.936s-4.719-6.316-7.008-10.225
		c-0.477-0.857-0.922-1.215-1.332-1.072s-0.615,0.596-0.615,1.357c0,3.623,0.023,6.889,0.072,9.795
		c0.047,2.908-0.018,5.936-0.197,9.08c0,0.383,0.166,0.572,0.5,0.572H396.825z"/>
	<path fill="#FFFFFF" d="M537.748,44.397L513.44,68.104l5.759,33.482c0.066,0.469,0.066,0.871,0.066,1.339
		c0,1.741-0.803,3.348-2.745,3.348c-0.938,0-1.875-0.335-2.679-0.804l-30.067-15.804l-30.067,15.804
		c-0.87,0.469-1.741,0.804-2.679,0.804c-1.941,0-2.813-1.607-2.813-3.348c0-0.469,0.067-0.871,0.134-1.339l5.76-33.482
		l-24.376-23.706c-0.804-0.87-1.674-2.009-1.674-3.214c0-2.009,2.076-2.813,3.75-3.081l33.616-4.889l15.067-30.469
		C481.096,1.473,482.234,0,483.774,0s2.679,1.473,3.281,2.746l15.067,30.469l33.616,4.889c1.607,0.268,3.75,1.071,3.75,3.081
		C539.489,42.389,538.619,43.527,537.748,44.397z"/>
</g>
</svg>
