<?xml version="1.0" encoding="utf-8"?>
<!-- Generator: Adobe Illustrator 12.0.0, SVG Export Plug-In . SVG Version: 6.00 Build 51448)  -->
<!DOCTYPE svg PUBLIC "-//W3C//DTD SVG 1.1//EN" "http://www.w3.org/Graphics/SVG/1.1/DTD/svg11.dtd" [
	<!ENTITY ns_svg "http://www.w3.org/2000/svg">
	<!ENTITY ns_xlink "http://www.w3.org/1999/xlink">
]>
<svg  version="1.1" id="レイヤー_1" xmlns="&ns_svg;" xmlns:xlink="&ns_xlink;" width="480.244" height="129.874"
	 viewBox="0 0 480.244 129.874" overflow="visible" enable-background="new 0 0 480.244 129.874" xml:space="preserve">
<path fill="#0F0D0E" d="M92.497,55.587H52.141c-1.041,0-1.886,0.845-1.886,1.887v19.73c0,1.041,0.845,1.889,1.886,1.889h15.743
	v24.514c0,0-3.535,1.205-13.308,1.205c-11.53,0-27.637-4.213-27.637-39.632c0-35.425,16.772-40.086,32.518-40.086
	c13.63,0,19.502,2.399,23.238,3.556c1.174,0.359,2.26-0.81,2.26-1.851l4.502-19.064c0-0.488-0.165-1.075-0.721-1.473
	C87.219,5.179,77.962,0,54.576,0C27.635,0,0,11.462,0,66.562c0,55.102,31.64,63.313,58.302,63.313
	c22.076,0,35.468-9.434,35.468-9.434c0.552-0.305,0.612-1.076,0.612-1.43V57.474C94.382,56.432,93.538,55.587,92.497,55.587"/>
<path fill="#0F0D0E" d="M300.475,6.602c0-1.05-0.832-1.897-1.873-1.897h-22.723c-1.038,0-1.882,0.847-1.882,1.897
	c0,0.005,0.006,43.913,0.006,43.913h-35.419V6.602c0-1.05-0.836-1.897-1.875-1.897h-22.721c-1.034,0-1.877,0.847-1.877,1.897
	v118.903c0,1.049,0.843,1.902,1.877,1.902h22.721c1.039,0,1.875-0.854,1.875-1.902V74.646h35.419c0,0-0.062,50.855-0.062,50.859
	c0,1.049,0.843,1.902,1.882,1.902H298.6c1.041,0,1.873-0.854,1.875-1.902V6.602z"/>
<path fill="#0F0D0E" d="M135.376,22.204c0-8.182-6.56-14.793-14.653-14.793c-8.085,0-14.65,6.611-14.65,14.793
	c0,8.174,6.565,14.804,14.65,14.804C128.816,37.008,135.376,30.378,135.376,22.204"/>
<path fill="#0F0D0E" d="M133.751,100.423V45.537c0-1.042-0.841-1.894-1.88-1.894H109.22c-1.039,0-1.969,1.072-1.969,2.113v78.636
	c0,2.311,1.44,2.998,3.304,2.998h20.408c2.239,0,2.788-1.1,2.788-3.035V100.423z"/>
<path fill="#0F0D0E" d="M386.832,43.821h-22.549c-1.034,0-1.876,0.853-1.876,1.901v58.302c0,0-5.729,4.191-13.859,4.191
	c-8.13,0-10.288-3.689-10.288-11.65V45.722c0-1.048-0.84-1.901-1.875-1.901H313.5c-1.033,0-1.879,0.853-1.879,1.901v54.693
	c0,23.646,13.179,29.432,31.309,29.432c14.873,0,26.865-8.217,26.865-8.217s0.571,4.33,0.829,4.844
	c0.259,0.512,0.932,1.029,1.659,1.029l14.559-0.064c1.033,0,1.879-0.854,1.879-1.898l-0.007-79.818
	C388.714,44.674,387.871,43.821,386.832,43.821"/>
<path fill="#0F0D0E" d="M448.461,41.15c-12.807,0-21.518,5.714-21.518,5.714V6.602c0-1.05-0.839-1.897-1.875-1.897h-22.787
	c-1.036,0-1.878,0.847-1.878,1.897v118.903c0,1.049,0.842,1.902,1.881,1.902h15.81c0.712,0,1.251-0.368,1.649-1.01
	c0.393-0.639,0.96-5.483,0.96-5.483s9.317,8.831,26.957,8.831c20.708,0,32.584-10.504,32.584-47.154
	C480.244,45.939,461.277,41.15,448.461,41.15 M439.567,108.144c-7.821-0.238-13.126-3.787-13.126-3.787V66.702
	c0,0,5.233-3.208,11.654-3.782c8.12-0.727,15.944,1.726,15.944,21.096C454.04,104.442,450.509,108.474,439.567,108.144"/>
<path fill="#0F0D0E" d="M199.058,43.632h-17.045c0,0-0.025-22.513-0.025-22.518c0-0.853-0.44-1.278-1.425-1.278h-23.228
	c-0.903,0-1.387,0.397-1.387,1.265V44.37c0,0-11.641,2.81-12.428,3.037c-0.783,0.228-1.36,0.951-1.36,1.813v14.622
	c0,1.052,0.839,1.9,1.878,1.9h11.91v35.179c0,26.129,18.328,28.695,30.695,28.695c5.651,0,12.411-1.814,13.527-2.227
	c0.675-0.248,1.068-0.947,1.068-1.705l0.018-16.086c0-1.049-0.886-1.898-1.884-1.898c-0.993,0-3.534,0.404-6.15,0.404
	c-8.372,0-11.209-3.893-11.209-8.932c0-5.035-0.001-33.431-0.001-33.431h17.046c1.039,0,1.881-0.848,1.881-1.9V45.527
	C200.938,44.477,200.097,43.632,199.058,43.632"/>
</svg>
